<svg width="256" height="310" viewBox="0 0 256 310" fill="none" xmlns="http://www.w3.org/2000/svg">

  <!-- === PIN BODY === -->
  <path d="M128 295C128 295 242 182 242 110C242 47.1 191.9 0 128 0S14 47.1 14 110C14 182 128 295 128 295Z" fill="#F06868" stroke="#333" stroke-width="5.5" stroke-linejoin="round"/>
  <!-- Pin highlight -->
  <path d="M128 0C64.1 0 14 47.1 14 110C14 182 128 295 128 295" fill="#F88" opacity="0.25"/>

  <!-- === WHITE CIRCLE === -->
  <circle cx="128" cy="110" r="80" fill="white" stroke="#333" stroke-width="5"/>

  <!-- === BUILDING BODY === -->
  <rect x="78" y="122" width="100" height="54" rx="1" fill="#C4BBE0" stroke="#333" stroke-width="4"/>
  <!-- Left half lighter shade -->
  <rect x="78" y="122" width="50" height="54" fill="#D2CAE8"/>
  <rect x="78" y="122" width="100" height="54" rx="1" fill="none" stroke="#333" stroke-width="4"/>

  <!-- === YELLOW TRAPEZOID ROOF === -->
  <path d="M68 106L85 80H171L188 106Z" fill="#F5D45A" stroke="#333" stroke-width="4" stroke-linejoin="round"/>
  <!-- Roof highlight -->
  <path d="M85 80H171L180 93H76Z" fill="#FCE88A" opacity="0.5"/>

  <!-- === RED BAR (awning base) === -->
  <rect x="68" y="103" width="120" height="10" rx="1" fill="#D94452" stroke="#333" stroke-width="3.5"/>

  <!-- === SCALLOPED AWNING (7 bumps) === -->
  <g fill="#D94452" stroke="#333" stroke-width="3">
    <path d="M68 113 Q77 127 86 113"/>
    <path d="M86 113 Q95 127 104 113"/>
    <path d="M104 113 Q113 127 122 113"/>
    <path d="M122 113 Q131 127 140 113"/>
    <path d="M140 113 Q149 127 158 113"/>
    <path d="M158 113 Q167 127 176 113"/>
    <path d="M176 113 Q183 127 188 113"/>
  </g>

  <!-- === WINDOW (left) === -->
  <rect x="90" y="134" width="32" height="26" rx="2" fill="#A8D4F0" stroke="#333" stroke-width="3.5"/>
  <line x1="106" y1="134" x2="106" y2="160" stroke="#333" stroke-width="2.5"/>
  <line x1="90" y1="147" x2="122" y2="147" stroke="#333" stroke-width="2.5"/>

  <!-- === DOOR (right) === -->
  <rect x="136" y="136" width="30" height="40" rx="2" fill="#F5D45A" stroke="#333" stroke-width="3.5"/>
  <circle cx="159" cy="158" r="3" fill="#333"/>

</svg>